<?xml version="1.0" encoding="UTF-8"?>
<svg xmlns="http://www.w3.org/2000/svg" xmlns:xlink="http://www.w3.org/1999/xlink" width="32px" height="32px" viewBox="0 0 32 32" version="1.1">
<g id="surface1">
<path style=" stroke:none;fill-rule:nonzero;fill:rgb(0%,0%,0%);fill-opacity:1;" d="M 5.953125 9.402344 C 5.578125 9.402344 5.277344 9.703125 5.277344 10.078125 C 5.277344 10.453125 5.578125 10.753906 5.953125 10.753906 C 6.324219 10.753906 6.625 10.453125 6.625 10.078125 C 6.625 9.703125 6.324219 9.402344 5.953125 9.402344 Z M 5.953125 9.402344 "/>
<path style=" stroke:none;fill-rule:nonzero;fill:rgb(0%,0%,0%);fill-opacity:1;" d="M 5.953125 7.507812 C 4.53125 7.507812 3.378906 8.660156 3.378906 10.078125 C 3.378906 11.496094 4.53125 12.652344 5.953125 12.652344 C 7.371094 12.652344 8.523438 11.496094 8.523438 10.078125 C 8.523438 8.660156 7.371094 7.507812 5.953125 7.507812 Z M 5.953125 11.4375 C 5.203125 11.4375 4.59375 10.828125 4.59375 10.078125 C 4.59375 9.328125 5.203125 8.722656 5.953125 8.722656 C 6.699219 8.722656 7.308594 9.328125 7.308594 10.078125 C 7.308594 10.828125 6.699219 11.4375 5.953125 11.4375 Z M 5.953125 11.4375 "/>
<path style=" stroke:none;fill-rule:nonzero;fill:rgb(0%,0%,0%);fill-opacity:1;" d="M 25.039062 9.328125 C 23.433594 7.699219 21.296875 6.804688 19.019531 6.804688 L 17.339844 6.804688 C 16.964844 6.804688 16.664062 7.109375 16.664062 7.480469 C 16.664062 7.851562 16.964844 8.15625 17.339844 8.15625 L 19.019531 8.15625 C 20.933594 8.15625 22.730469 8.90625 24.078125 10.277344 C 24.210938 10.410156 24.386719 10.476562 24.558594 10.476562 C 24.730469 10.476562 24.902344 10.410156 25.035156 10.28125 C 25.300781 10.019531 25.300781 9.59375 25.039062 9.328125 Z M 25.039062 9.328125 "/>
<path style=" stroke:none;fill-rule:nonzero;fill:rgb(0%,0%,0%);fill-opacity:1;" d="M 31.324219 14.59375 L 29.621094 14.59375 C 29.265625 9.050781 24.648438 4.648438 19.019531 4.648438 L 16.308594 4.648438 C 15.050781 4.648438 13.832031 4.863281 12.671875 5.285156 L 12.671875 3.84375 C 12.671875 3.03125 12.007812 2.367188 11.195312 2.367188 C 11.128906 2.367188 11.066406 2.371094 11 2.378906 C 8.851562 2.625 6.898438 3.652344 5.472656 5.28125 C 2.808594 5.675781 0 8.890625 0 11.65625 C 0 12.929688 0.570312 13.898438 1.457031 14.59375 L 1.125 14.59375 C 0.753906 14.59375 0.453125 14.894531 0.453125 15.269531 L 0.453125 18.457031 C 0.453125 18.828125 0.753906 19.128906 1.125 19.128906 L 8.179688 19.128906 L 6.628906 20.679688 C 5.203125 20.429688 3.71875 20.890625 2.6875 21.925781 C 1.835938 22.777344 1.371094 23.929688 1.371094 25.105469 C 1.371094 25.492188 1.421875 25.878906 1.523438 26.261719 C 1.585938 26.496094 1.769531 26.675781 2 26.738281 C 2.382812 26.839844 2.769531 26.890625 3.15625 26.890625 C 4.332031 26.890625 5.484375 26.429688 6.335938 25.578125 C 7.371094 24.542969 7.832031 23.0625 7.585938 21.632812 L 10.085938 19.128906 L 24.976562 19.128906 C 24.796875 20.25 24.4375 21.328125 23.898438 22.359375 C 23.042969 23.996094 21.769531 25.382812 20.21875 26.371094 C 18.71875 27.328125 16.980469 27.894531 15.203125 28.011719 C 14.867188 28.035156 14.597656 28.296875 14.570312 28.632812 C 14.546875 28.96875 14.769531 29.269531 15.097656 29.34375 C 15.964844 29.539062 16.835938 29.632812 17.695312 29.632812 C 22.0625 29.632812 26.1875 27.222656 28.277344 23.230469 C 28.945312 21.949219 29.378906 20.554688 29.554688 19.128906 L 31.324219 19.128906 C 31.699219 19.128906 32 18.828125 32 18.457031 L 32 15.269531 C 32 14.894531 31.699219 14.59375 31.324219 14.59375 Z M 5.382812 24.621094 C 4.6875 25.316406 3.710938 25.640625 2.75 25.515625 C 2.621094 24.554688 2.945312 23.574219 3.640625 22.878906 C 4.332031 22.1875 5.3125 21.863281 6.273438 21.988281 C 6.398438 22.949219 6.074219 23.929688 5.382812 24.621094 Z M 10.710938 17.78125 L 1.800781 17.78125 L 1.800781 15.941406 L 10.832031 15.949219 L 10.667969 16.53125 C 10.546875 16.949219 10.566406 17.378906 10.710938 17.78125 Z M 19.09375 17.78125 L 14.558594 17.78125 C 14.574219 17.734375 15.082031 15.949219 15.082031 15.949219 L 19.214844 15.949219 L 19.050781 16.53125 C 18.929688 16.949219 18.949219 17.378906 19.09375 17.78125 Z M 22.941406 17.78125 C 22.957031 17.734375 23.464844 15.949219 23.464844 15.949219 L 24.761719 15.949219 C 24.949219 15.949219 25.097656 16.097656 25.097656 16.285156 C 25.097656 16.285156 25.105469 17.746094 25.101562 17.78125 Z M 28.292969 17.578125 C 28.292969 17.582031 28.289062 17.585938 28.289062 17.59375 C 28.308594 19.324219 27.890625 21.058594 27.078125 22.605469 C 25.613281 25.40625 23.015625 27.328125 20.078125 28.011719 C 20.375 27.855469 20.664062 27.6875 20.945312 27.507812 C 22.691406 26.394531 24.128906 24.828125 25.09375 22.984375 C 25.980469 21.296875 26.4375 19.480469 26.457031 17.59375 C 26.460938 17.554688 26.449219 16.285156 26.449219 16.285156 C 26.449219 15.355469 25.691406 14.597656 24.761719 14.597656 L 23.84375 14.597656 L 23.941406 14.253906 C 24.226562 13.246094 23.707031 12.191406 22.734375 11.800781 C 22.695312 11.785156 21.746094 11.417969 21.746094 11.417969 C 21.398438 11.277344 21.003906 11.445312 20.867188 11.792969 C 20.726562 12.136719 20.894531 12.53125 21.242188 12.667969 C 21.242188 12.667969 22.261719 13.078125 22.296875 13.082031 C 22.585938 13.234375 22.730469 13.566406 22.640625 13.886719 L 21.6875 17.273438 C 21.601562 17.574219 21.328125 17.78125 21.019531 17.78125 C 20.953125 17.78125 20.890625 17.773438 20.828125 17.753906 C 20.652344 17.703125 20.5 17.585938 20.410156 17.425781 C 20.320312 17.261719 20.296875 17.074219 20.347656 16.898438 L 20.96875 14.695312 C 21.070312 14.335938 20.863281 13.964844 20.503906 13.863281 C 20.144531 13.761719 19.773438 13.96875 19.671875 14.328125 L 19.59375 14.597656 L 15.460938 14.597656 L 15.558594 14.253906 C 15.84375 13.246094 15.324219 12.191406 14.351562 11.800781 C 14.3125 11.785156 13.359375 11.417969 13.359375 11.417969 C 13.015625 11.277344 12.621094 11.445312 12.484375 11.792969 C 12.34375 12.136719 12.511719 12.53125 12.859375 12.671875 C 12.859375 12.671875 13.878906 13.078125 13.914062 13.082031 C 14.203125 13.234375 14.347656 13.566406 14.257812 13.886719 L 13.304688 17.273438 C 13.21875 17.574219 12.945312 17.78125 12.636719 17.78125 C 12.574219 17.78125 12.507812 17.773438 12.445312 17.753906 C 12.265625 17.703125 12.121094 17.585938 12.03125 17.425781 C 11.9375 17.261719 11.917969 17.074219 11.964844 16.898438 L 12.585938 14.695312 C 12.6875 14.335938 12.480469 13.964844 12.121094 13.863281 C 11.761719 13.761719 11.390625 13.96875 11.289062 14.328125 L 11.210938 14.597656 L 5.847656 14.59375 C 2.304688 14.5 1.351562 12.71875 1.351562 11.65625 C 1.351562 10.644531 1.90625 9.417969 2.835938 8.371094 C 3.765625 7.324219 4.898438 6.660156 5.863281 6.597656 C 6.046875 6.582031 6.21875 6.496094 6.335938 6.351562 C 7.554688 4.871094 9.265625 3.9375 11.15625 3.722656 C 11.164062 3.71875 11.167969 3.71875 11.171875 3.71875 C 11.183594 3.71875 11.324219 3.773438 11.324219 3.84375 L 11.324219 6.304688 C 11.324219 6.535156 11.441406 6.75 11.636719 6.875 C 11.835938 7 12.082031 7.011719 12.289062 6.910156 C 13.546875 6.304688 14.898438 6 16.308594 6 L 19.019531 6 C 24.132812 6 28.292969 10.160156 28.292969 15.273438 Z M 30.648438 17.78125 L 29.640625 17.78125 C 29.640625 17.71875 29.640625 15.941406 29.640625 15.941406 L 30.648438 15.941406 Z M 30.648438 17.78125 "/>
<path style=" stroke:none;fill-rule:nonzero;fill:rgb(0%,0%,0%);fill-opacity:1;" d="M 5.953125 9.402344 C 5.578125 9.402344 5.277344 9.703125 5.277344 10.078125 C 5.277344 10.453125 5.578125 10.753906 5.953125 10.753906 C 6.324219 10.753906 6.625 10.453125 6.625 10.078125 C 6.625 9.703125 6.324219 9.402344 5.953125 9.402344 Z M 5.953125 9.402344 "/>
<path style=" stroke:none;fill-rule:nonzero;fill:rgb(0%,0%,0%);fill-opacity:1;" d="M 5.953125 7.507812 C 4.53125 7.507812 3.378906 8.660156 3.378906 10.078125 C 3.378906 11.496094 4.53125 12.652344 5.953125 12.652344 C 7.371094 12.652344 8.523438 11.496094 8.523438 10.078125 C 8.523438 8.660156 7.371094 7.507812 5.953125 7.507812 Z M 5.953125 11.4375 C 5.203125 11.4375 4.59375 10.828125 4.59375 10.078125 C 4.59375 9.328125 5.203125 8.722656 5.953125 8.722656 C 6.699219 8.722656 7.308594 9.328125 7.308594 10.078125 C 7.308594 10.828125 6.699219 11.4375 5.953125 11.4375 Z M 5.953125 11.4375 "/>
<path style=" stroke:none;fill-rule:nonzero;fill:rgb(0%,0%,0%);fill-opacity:1;" d="M 25.039062 9.328125 C 23.433594 7.699219 21.296875 6.804688 19.019531 6.804688 L 17.339844 6.804688 C 16.964844 6.804688 16.664062 7.109375 16.664062 7.480469 C 16.664062 7.851562 16.964844 8.15625 17.339844 8.15625 L 19.019531 8.15625 C 20.933594 8.15625 22.730469 8.90625 24.078125 10.277344 C 24.210938 10.410156 24.386719 10.476562 24.558594 10.476562 C 24.730469 10.476562 24.902344 10.410156 25.035156 10.28125 C 25.300781 10.019531 25.300781 9.59375 25.039062 9.328125 Z M 25.039062 9.328125 "/>
<path style=" stroke:none;fill-rule:nonzero;fill:rgb(0%,0%,0%);fill-opacity:1;" d="M 25.039062 9.328125 C 23.433594 7.699219 21.296875 6.804688 19.019531 6.804688 L 17.339844 6.804688 C 16.964844 6.804688 16.664062 7.109375 16.664062 7.480469 C 16.664062 7.851562 16.964844 8.15625 17.339844 8.15625 L 19.019531 8.15625 C 20.933594 8.15625 22.730469 8.90625 24.078125 10.277344 C 24.210938 10.410156 24.386719 10.476562 24.558594 10.476562 C 24.730469 10.476562 24.902344 10.410156 25.035156 10.28125 C 25.300781 10.019531 25.300781 9.59375 25.039062 9.328125 Z M 25.039062 9.328125 "/>
<path style=" stroke:none;fill-rule:nonzero;fill:rgb(0%,0%,0%);fill-opacity:1;" d="M 5.953125 9.402344 C 5.578125 9.402344 5.277344 9.703125 5.277344 10.078125 C 5.277344 10.453125 5.578125 10.753906 5.953125 10.753906 C 6.324219 10.753906 6.625 10.453125 6.625 10.078125 C 6.625 9.703125 6.324219 9.402344 5.953125 9.402344 Z M 5.953125 9.402344 "/>
<path style=" stroke:none;fill-rule:nonzero;fill:rgb(0%,0%,0%);fill-opacity:1;" d="M 5.953125 9.402344 C 5.578125 9.402344 5.277344 9.703125 5.277344 10.078125 C 5.277344 10.453125 5.578125 10.753906 5.953125 10.753906 C 6.324219 10.753906 6.625 10.453125 6.625 10.078125 C 6.625 9.703125 6.324219 9.402344 5.953125 9.402344 Z M 5.953125 9.402344 "/>
<path style=" stroke:none;fill-rule:nonzero;fill:rgb(0%,0%,0%);fill-opacity:1;" d="M 5.953125 7.507812 C 4.53125 7.507812 3.378906 8.660156 3.378906 10.078125 C 3.378906 11.496094 4.53125 12.652344 5.953125 12.652344 C 7.371094 12.652344 8.523438 11.496094 8.523438 10.078125 C 8.523438 8.660156 7.371094 7.507812 5.953125 7.507812 Z M 5.953125 11.4375 C 5.203125 11.4375 4.59375 10.828125 4.59375 10.078125 C 4.59375 9.328125 5.203125 8.722656 5.953125 8.722656 C 6.699219 8.722656 7.308594 9.328125 7.308594 10.078125 C 7.308594 10.828125 6.699219 11.4375 5.953125 11.4375 Z M 5.953125 11.4375 "/>
<path style=" stroke:none;fill-rule:nonzero;fill:rgb(0%,0%,0%);fill-opacity:1;" d="M 5.953125 9.402344 C 5.578125 9.402344 5.277344 9.703125 5.277344 10.078125 C 5.277344 10.453125 5.578125 10.753906 5.953125 10.753906 C 6.324219 10.753906 6.625 10.453125 6.625 10.078125 C 6.625 9.703125 6.324219 9.402344 5.953125 9.402344 Z M 5.953125 9.402344 "/>
</g>
</svg>
